<?xml version="1.0" encoding="UTF-8"?>
<svg version="1.1" xmlns="http://www.w3.org/2000/svg" width="281" height="274">
<path d="M0 0 C1.8125 1.0625 1.8125 1.0625 3 3 C3.1599379 5.67449834 3.05131185 8.31828049 3 11 C3.59949463 10.63124756 4.19898926 10.26249512 4.81665039 9.88256836 C7.55367249 8.21427062 10.30747003 6.5758733 13.0625 4.9375 C14.47692383 4.06641602 14.47692383 4.06641602 15.91992188 3.17773438 C23.85095755 -1.49245737 23.85095755 -1.49245737 28.05859375 -0.99609375 C31 0 31 0 33 2 C33 3.32 33 4.64 33 6 C34.00160156 5.45988281 35.00320312 4.91976562 36.03515625 4.36328125 C37.37691164 3.6783292 38.71939932 2.99481033 40.0625 2.3125 C41.04766602 1.77399414 41.04766602 1.77399414 42.05273438 1.22460938 C46.92830865 -1.20116896 46.92830865 -1.20116896 50.01855469 -0.62109375 C53.01892531 0.58335611 54.71705404 1.40266963 56.125 4.375 C55.83614012 10.44105745 51.1298383 14.05371007 47 18 C48.03125 17.505 49.0625 17.01 50.125 16.5 C53.56643413 15.0509751 56.2366906 14.31576193 60 15 C62.4867634 17.72741792 63 19.3146262 63 23 C61.76677357 26.69967929 59.90891047 28.46402677 57 31 C57.804375 31.37125 58.60875 31.7425 59.4375 32.125 C62 34 62 34 63.0625 36.8125 C62.97652335 41.19730922 61.07649036 43.92350964 58 47 C58.825 47.515625 59.65 48.03125 60.5 48.5625 C63 51 63 51 63.4375 54.375 C63.01867433 57.84526986 62.26769267 60.75153752 61 64 C62.485 64.99 62.485 64.99 64 66 C64.05671686 68.83584297 64.05088436 70.42430304 63 73 C58.90026662 76.89302413 53.78169544 80.13140217 48 80 C44.61122035 78.61368105 43.33229498 77.76245765 41.859375 74.3828125 C41.57578125 73.59648437 41.2921875 72.81015625 41 72 C39.98679688 72.58910156 38.97359375 73.17820312 37.9296875 73.78515625 C36.57861156 74.54513647 35.22702153 75.30420328 33.875 76.0625 C32.87726563 76.64741211 32.87726563 76.64741211 31.859375 77.24414062 C28.44699472 79.13433166 26.60835166 80.03238909 22.625 79.8203125 C19.79171456 78.9349108 18.56594372 78.52290932 17 76 C16.95484213 74.00050987 16.95129997 71.99940699 17 70 C16.28251587 70.45439453 16.28251587 70.45439453 15.55053711 70.91796875 C13.35599224 72.29502116 11.14723696 73.64747283 8.9375 75 C8.18533203 75.47695313 7.43316406 75.95390625 6.65820312 76.4453125 C1.94634531 79.3009839 -1.32352349 80.75161417 -7 80 C-9.5 78.4375 -9.5 78.4375 -11 76 C-10.78571429 69.78571429 -10.78571429 69.78571429 -8 67 C-9.093125 66.9175 -10.18625 66.835 -11.3125 66.75 C-15 66 -15 66 -17 64.3125 C-18.45597225 60.94556417 -18.22684739 59.47606761 -17 56 C-14.41922049 52.85930075 -11.66410633 49.83205316 -8 48 C-9.093125 47.7525 -10.18625 47.505 -11.3125 47.25 C-15 46 -15 46 -17 44.25 C-18.36611053 41.17625131 -17.75454843 39.22397965 -17 36 C-16.7763932 33.0745356 -16.7763932 33.0745356 -18 31 C-18.51198891 25.62411642 -17.02208442 21.88670402 -15 17 C-15.48082031 16.56300781 -15.96164063 16.12601563 -16.45703125 15.67578125 C-18 14 -18 14 -18.6875 11.1875 C-17.75148416 6.84779022 -15.68090463 5.72798197 -12.09375 3.328125 C-11.4028125 2.88984375 -10.711875 2.4515625 -10 2 C-9.113125 1.360625 -8.22625 0.72125 -7.3125 0.0625 C-4.36948861 -1.28969442 -3.01471387 -1.11068406 0 0 Z " fill="#787876" transform="translate(118,194)"/>
<path d="M0 0 C2 1.5 2 1.5 3 4 C2.83614379 6.6983418 2.39197409 9.32151041 2 12 C2.59949463 11.63648437 3.19898926 11.27296875 3.81665039 10.8984375 C6.55598446 9.24960519 9.30882542 7.62475949 12.0625 6 C13.47692383 5.14148438 13.47692383 5.14148438 14.91992188 4.265625 C20.17264789 1.19085855 23.86511978 -0.95576696 30 0 C32.61593153 1.83115207 32.96989455 2.90968366 34 6 C34.72445312 5.566875 35.44890625 5.13375 36.1953125 4.6875 C37.16210938 4.130625 38.12890625 3.57375 39.125 3 C40.07632813 2.443125 41.02765625 1.88625 42.0078125 1.3125 C45.30355615 -0.13315257 47.44075325 -0.32493123 51 0 C53.375 1.0625 53.375 1.0625 55 3 C55.8125 6.125 55.8125 6.125 55 10 C52.27313205 13.31760144 49.22823199 16.17529701 46 19 C46.51949219 18.71125 47.03898437 18.4225 47.57421875 18.125 C54.96163554 14.19232711 54.96163554 14.19232711 59 15 C61.30073694 16.56121436 61.91384861 17.7661605 62.875 20.375 C63.03917116 23.82259426 62.02451082 25.2524496 60 28 C58.3125 29.8125 58.3125 29.8125 57 31 C57.804375 31.5775 58.60875 32.155 59.4375 32.75 C62 35 62 35 63 36.875 C63 40.1132473 61.61490053 42.24868798 60 45 C59.01 45.99 59.01 45.99 58 47 C58.825 47.70125 59.65 48.4025 60.5 49.125 C63 52 63 52 63.4375 54.9375 C62.9783957 58.15123009 62.15427188 60.97003631 61 64 C61.7734375 64.556875 61.7734375 64.556875 62.5625 65.125 C64 67 64 67 64.25 69.8125 C62.31603499 74.74411078 58.63065604 76.69216495 54 79 C49.93892758 80.15063719 48.04176898 80.40764873 44.125 78.875 C41.55684644 76.60898215 41.50777388 75.29512834 41 72 C40.05898438 72.5775 39.11796875 73.155 38.1484375 73.75 C36.89103539 74.50068783 35.63319967 75.25064969 34.375 76 C33.75753906 76.3815625 33.14007813 76.763125 32.50390625 77.15625 C28.52236222 79.50326543 25.75149281 80.56713597 21 80 C18.6875 78.875 18.6875 78.875 17 77 C16.61339563 75.00961105 16.27492558 73.00886213 16 71 C15.01257812 71.56589844 14.02515625 72.13179688 13.0078125 72.71484375 C11.71355794 73.45575759 10.41928621 74.19664145 9.125 74.9375 C8.47402344 75.31068359 7.82304687 75.68386719 7.15234375 76.06835938 C1.86763682 79.09208344 -1.78119253 80.88840107 -8 80 C-10.0625 78.4375 -10.0625 78.4375 -11 76 C-10.56363636 69.56363636 -10.56363636 69.56363636 -9 68 C-11.64 67.01 -14.28 66.02 -17 65 C-17.84669596 62.29057292 -18.30620692 60.76624215 -18 58 C-15.35199901 53.84524915 -12.08197469 50.72131646 -8 48 C-9.27875 47.731875 -10.5575 47.46375 -11.875 47.1875 C-15.49675855 46.42809901 -15.80051868 46.29922197 -18 43 C-17.74889902 40.65639085 -17.41434251 38.32031805 -17 36 C-17 35.01 -17 34.02 -17 33 C-17.33 32.67 -17.66 32.34 -18 32 C-18.31533936 26.95457016 -17.59082729 22.85352756 -16.14453125 18.015625 C-16.07298828 17.01789063 -16.07298828 17.01789063 -16 16 C-17.4114969 14.36970589 -17.4114969 14.36970589 -19 13 C-19 10.5625 -19 10.5625 -18 8 C-15.8125 5.9375 -15.8125 5.9375 -13 4 C-12.05125 3.2575 -11.1025 2.515 -10.125 1.75 C-6.38115482 -0.3465533 -4.22719103 -0.63806657 0 0 Z " fill="#9E9E9E" transform="translate(19,97)"/>
<path d="M0 0 C2.625 1 2.625 1 4.625 4 C4.88260279 6.69452521 4.71400053 9.28548375 4.625 12 C5.26002441 11.63124756 5.89504883 11.26249512 6.54931641 10.88256836 C9.43995096 9.21688172 12.3445014 7.57710986 15.25 5.9375 C16.24902344 5.35677734 17.24804688 4.77605469 18.27734375 4.17773438 C19.25058594 3.63310547 20.22382813 3.08847656 21.2265625 2.52734375 C22.11682129 2.01937256 23.00708008 1.51140137 23.92431641 0.98803711 C27.28561249 -0.24168313 29.21354678 0.00714089 32.625 1 C35 3.5625 35 3.5625 36.625 6 C37.48222656 5.53207031 38.33945313 5.06414062 39.22265625 4.58203125 C48.2601452 -0.03350707 48.2601452 -0.03350707 52.01171875 0.05859375 C55.14943176 1.22290235 56.49923227 2.75418126 58 5.6875 C57.49499782 10.14835256 55.45053263 12.01715002 52.38671875 15.16796875 C50.44345079 17.08068539 50.44345079 17.08068539 48.625 20 C49.65625 19.34 50.6875 18.68 51.75 18 C55.18220154 16.05462261 57.63019384 15.27367161 61.625 16 C63.5625 17.5625 63.5625 17.5625 64.625 20 C64.625 24.58037182 64.09857873 26.45711706 61.0625 29.9375 C60.258125 30.618125 59.45375 31.29875 58.625 32 C59.615 32.53625 60.605 33.0725 61.625 33.625 C64.625 36 64.625 36 65.3125 38.875 C64.38409166 43.09503791 62.58670314 44.8902117 59.625 48 C60.45 48.515625 61.275 49.03125 62.125 49.5625 C64.625 52 64.625 52 65.0625 55.375 C64.64367433 58.84526986 63.89269267 61.75153752 62.625 65 C64.11 65.99 64.11 65.99 65.625 67 C65.68171686 69.83584297 65.67588436 71.42430304 64.625 74 C60.52526662 77.89302413 55.40669544 81.13140217 49.625 81 C46.23622035 79.61368105 44.95729498 78.76245765 43.484375 75.3828125 C43.20078125 74.59648437 42.9171875 73.81015625 42.625 73 C41.61179687 73.58910156 40.59859375 74.17820312 39.5546875 74.78515625 C38.20361156 75.54513647 36.85202153 76.30420328 35.5 77.0625 C34.50226563 77.64741211 34.50226563 77.64741211 33.484375 78.24414062 C30.07199472 80.13433166 28.23335166 81.03238909 24.25 80.8203125 C21.41671456 79.9349108 20.19094372 79.52290932 18.625 77 C18.57984213 75.00050987 18.57629997 72.99940699 18.625 71 C17.90751587 71.45439453 17.90751587 71.45439453 17.17553711 71.91796875 C14.98099224 73.29502116 12.77223696 74.64747283 10.5625 76 C9.81033203 76.47695313 9.05816406 76.95390625 8.28320312 77.4453125 C3.566698 80.30380045 0.30876479 81.72589589 -5.375 81 C-7.50079971 79.58280019 -8.15265895 78.4605636 -9.25 76.1875 C-9.43682305 72.91809657 -7.95968121 70.78903893 -6.375 68 C-8.293125 67.690625 -8.293125 67.690625 -10.25 67.375 C-13.68124328 66.51566554 -14.14730222 66.3794963 -16.0625 63.1875 C-16.375 60 -16.375 60 -15.4375 57.5 C-12.74476441 54.23607807 -9.67589854 51.63167528 -6.375 49 C-7.468125 48.773125 -8.56125 48.54625 -9.6875 48.3125 C-13.375 47 -13.375 47 -15.375 44.6875 C-16.54306509 41.54832507 -16.27040682 40.17462417 -15.375 37 C-15.20609374 33.1926587 -15.20609374 33.1926587 -16.0625 30.375 C-16.5113674 25.5272321 -14.96417533 21.5430662 -13.375 17 C-14.365 16.34 -15.355 15.68 -16.375 15 C-16.875 12.125 -16.875 12.125 -16.375 9 C-14.375 6.9375 -14.375 6.9375 -11.375 5 C-10.74722656 4.54109375 -10.11945313 4.0821875 -9.47265625 3.609375 C-6.09730486 1.25116405 -4.19952874 0 0 0 Z " fill="#787876" transform="translate(215.375,193)"/>
<path d="M0 0 C1.875 1.625 1.875 1.625 3 4 C2.6875 7.75 2.6875 7.75 2 11 C2.66644531 10.63648438 3.33289063 10.27296875 4.01953125 9.8984375 C5.95960827 8.84021367 7.90253097 7.78719694 9.84765625 6.73828125 C11.89807625 5.60762834 13.92861079 4.43986593 15.93359375 3.23046875 C23.90524707 -1.49060749 23.90524707 -1.49060749 28.0625 -1 C31 0 31 0 33 2 C33 3.32 33 4.64 33 6 C33.94101562 5.47148437 34.88203125 4.94296875 35.8515625 4.3984375 C37.10880824 3.72290247 38.36665302 3.04848148 39.625 2.375 C40.24246094 2.024375 40.85992187 1.67375 41.49609375 1.3125 C44.83856882 -0.4466974 46.58588042 -1.08243598 50.3359375 -0.3359375 C53 1 53 1 55 3 C55.58604173 6.1499743 55.57817078 8.13912742 53.76171875 10.84375 C51.31655079 13.70756955 48.66933604 16.34669601 46 19 C46.49628906 18.69964844 46.99257812 18.39929688 47.50390625 18.08984375 C52.55846884 15.26043964 55.36344696 14.59086174 61 16 C63.31812999 22.22234892 63.31812999 22.22234892 61.875 25.75 C60.06911137 27.91706635 58.35292545 29.45842815 56 31 C56.969375 31.391875 57.93875 31.78375 58.9375 32.1875 C62 34 62 34 63.125 36.25 C62.94073171 40.30390245 61.19341026 42.61018415 59 46 C58.34 46 57.68 46 57 46 C57 46.66 57 47.32 57 48 C57.804375 48.309375 58.60875 48.61875 59.4375 48.9375 C62 50 62 50 63 51 C62.9140625 52.92578125 62.9140625 52.92578125 62.625 55.3125 C62.53476563 56.09238281 62.44453125 56.87226563 62.3515625 57.67578125 C62 60 62 60 61.3671875 62.203125 C61.18542969 63.09257812 61.18542969 63.09257812 61 64 C61.495 64.474375 61.99 64.94875 62.5 65.4375 C64 67 64 67 64.0625 69.375 C62.15576941 74.08574617 58.14821305 76.28236684 54 78.875 C50.4370674 80.21109973 48.61197702 80.12372618 45 79 C43.125 77.75 43.125 77.75 42 76 C41.95510612 74.33393808 41.95100158 72.66594626 42 71 C40.92621094 71.66128906 39.85242187 72.32257813 38.74609375 73.00390625 C37.31048626 73.8577643 35.87425486 74.71057399 34.4375 75.5625 C33.73302734 76.00013672 33.02855469 76.43777344 32.30273438 76.88867188 C28.54547517 79.08762081 26.55084762 80.01045565 22.08984375 79.92578125 C19 79 19 79 17.125 76.625 C16 74 16 74 15 71 C13.37191406 71.97453125 13.37191406 71.97453125 11.7109375 72.96875 C10.26602263 73.81318077 8.82068776 74.65689313 7.375 75.5 C6.30572266 76.14388672 6.30572266 76.14388672 5.21484375 76.80078125 C1.01129103 79.23035759 -1.99993684 80.72066289 -7 80 C-9.4375 78.4375 -9.4375 78.4375 -11 76 C-10.85146936 71.76687689 -10.35931785 69.53897678 -8 66 C-9.093125 66.061875 -10.18625 66.12375 -11.3125 66.1875 C-15 66 -15 66 -17 64.9375 C-18.75617152 61.53491769 -18.12682135 59.6176896 -17 56 C-14.55953363 53.06733873 -11.86571072 50.51320872 -9 48 C-10.11375 47.54625 -11.2275 47.0925 -12.375 46.625 C-16 45 -16 45 -18 43 C-18.34490322 38.94738713 -18.30163882 37.45245824 -16 34 C-16.66 33.01 -17.32 32.02 -18 31 C-18.01171875 28.94921875 -18.01171875 28.94921875 -17.6875 26.6875 C-17.58308594 25.8934375 -17.47867187 25.099375 -17.37109375 24.28125 C-17.06576139 22.40425951 -16.66993591 20.54221695 -16.25 18.6875 C-15.68387266 15.93331276 -15.68387266 15.93331276 -17.5625 14 C-18.2740625 13.01 -18.2740625 13.01 -19 12 C-18.25697156 8.08848598 -17.47075062 6.38313677 -14.35546875 3.84765625 C-13.31003906 3.25855469 -12.26460937 2.66945312 -11.1875 2.0625 C-9.63095703 1.15177734 -9.63095703 1.15177734 -8.04296875 0.22265625 C-4.7106268 -1.11626934 -3.33949655 -1.18724658 0 0 Z " fill="#787876" transform="translate(19,194)"/>
<path d="M0 0 C2.64988144 2.29656391 2.96996336 3.62454202 3.25 7.125 C3 10 3 10 2 12 C2.89138672 11.45472656 2.89138672 11.45472656 3.80078125 10.8984375 C6.52316905 9.2472225 9.26106823 7.62361243 12 6 C12.93457031 5.42765625 13.86914062 4.8553125 14.83203125 4.265625 C20.50987853 0.93038604 24.38219284 -0.96259013 31 0 C33.1385485 2.1385485 33.42655063 3.13275314 34 6 C34.71285156 5.566875 35.42570312 5.13375 36.16015625 4.6875 C46.38873931 -1.25967077 46.38873931 -1.25967077 52 0 C54.5 2.1875 54.5 2.1875 56 5 C55.76193006 9.66924268 53.75371004 11.6831187 50.4375 14.8125 C49.61121094 15.60269531 48.78492188 16.39289063 47.93359375 17.20703125 C47.29550781 17.79871094 46.65742188 18.39039062 46 19 C46.49628906 18.69964844 46.99257812 18.39929688 47.50390625 18.08984375 C51.24255193 15.99705347 53.4989424 15 57.875 15 C61 16 61 16 62.5 17.6875 C63.190527 20.88118738 62.95998678 22.86404317 62 26 C59.4375 28.875 59.4375 28.875 57 31 C57.804375 31.37125 58.60875 31.7425 59.4375 32.125 C62 34 62 34 63 36.875 C63 40.56147084 62.18780134 42.08293155 60 45 C59.01 45.99 59.01 45.99 58 47 C58.825 47.515625 59.65 48.03125 60.5 48.5625 C63 51 63 51 63.4375 54.375 C63.01867433 57.84526986 62.26769267 60.75153752 61 64 C61.7734375 64.556875 61.7734375 64.556875 62.5625 65.125 C64 67 64 67 64 69.9375 C62.42486691 74.76134509 59.26985905 76.19943668 55.125 78.8125 C51.24450082 80.28708969 48.98659059 80.05306167 45 79 C42.17886014 77.0252021 41.73948704 75.26046559 41 72 C40.05898437 72.5775 39.11796875 73.155 38.1484375 73.75 C36.89103539 74.50068783 35.63319967 75.25064969 34.375 76 C33.75753906 76.3815625 33.14007813 76.763125 32.50390625 77.15625 C28.53923848 79.49331732 25.73371464 80.6270277 21 80 C17.39626129 77.37024473 16.71604923 75.27502658 16 71 C14.92621094 71.6496875 13.85242188 72.299375 12.74609375 72.96875 C11.31036423 73.81329678 9.87413977 74.65700256 8.4375 75.5 C7.73302734 75.92925781 7.02855469 76.35851562 6.30273438 76.80078125 C1.7085165 79.46839163 -1.54102886 80.6678891 -7 80 C-9.5 78.375 -9.5 78.375 -11 76 C-10.81623488 72.93724796 -10.36973455 70.7394691 -9 68 C-10.11375 67.54625 -11.2275 67.0925 -12.375 66.625 C-16 65 -16 65 -18 63 C-18.18072761 59.9878731 -18.18727919 58.69220764 -17 56 C-14.2365199 53.02354493 -11.20253319 50.49085915 -8 48 C-9.093125 47.7525 -10.18625 47.505 -11.3125 47.25 C-15 46 -15 46 -17 44.25 C-18.36611053 41.17625131 -17.75454843 39.22397965 -17 36 C-16.7763932 33.0745356 -16.7763932 33.0745356 -18 31 C-18.51198891 25.62411642 -17.02208442 21.88670402 -15 17 C-15.495 16.62875 -15.99 16.2575 -16.5 15.875 C-18 14 -18 14 -18.4921875 11.05078125 C-18 8 -18 8 -15.8828125 5.91796875 C-14.97273438 5.34691406 -14.06265625 4.77585937 -13.125 4.1875 C-11.76761719 3.31158203 -11.76761719 3.31158203 -10.3828125 2.41796875 C-6.62375461 0.18102119 -4.43815355 -0.45287281 0 0 Z " fill="#9E9E9E" transform="translate(118,97)"/>
<path d="M0 0 C2.29291391 2.79137346 2.2779105 5.47980037 2 9 C1.67 9.66 1.34 10.32 1 11 C1.59949463 10.63648438 2.19898926 10.27296875 2.81665039 9.8984375 C5.55598446 8.24960519 8.30882542 6.62475949 11.0625 5 C12.47692383 4.14148438 12.47692383 4.14148438 13.91992188 3.265625 C19.17264789 0.19085855 22.86511978 -1.95576696 29 -1 C31.61593153 0.83115207 31.96989455 1.90968366 33 5 C33.78503906 4.55527344 34.57007813 4.11054687 35.37890625 3.65234375 C45.03225755 -1.54743689 45.03225755 -1.54743689 49.125 -1 C52 -0 52 -0 54 2 C54.6875 5.0625 54.6875 5.0625 54 9 C51.28186173 12.32510118 48.2282255 15.17530269 45 18 C45.59167969 17.69964844 46.18335937 17.39929688 46.79296875 17.08984375 C53.17635255 14.01790538 53.17635255 14.01790538 56.875 13.9375 C59.91046264 15.45523132 60.80503784 16.83686487 62 20 C61.11832547 25.17983789 58.42191009 28.21788885 55 32 C56.175625 32.0928125 56.175625 32.0928125 57.375 32.1875 C60 33 60 33 61.5 35.1875 C62.18659865 39.04961741 61.03024935 40.70959589 59 44 C58.03465478 45.35863401 57.04722851 46.70343137 56 48 C56.61875 48.12375 57.2375 48.2475 57.875 48.375 C60 49 60 49 62 51 C62.59873581 56.14912794 61.17935819 59.45967044 59 64 C60.98 64.99 60.98 64.99 63 66 C62.74317902 69.76670775 62.50579204 71.50825774 59.75 74.1875 C58.8425 74.785625 57.935 75.38375 57 76 C56.21625 76.5775 55.4325 77.155 54.625 77.75 C51.18348909 79.38881472 48.77035521 79.41131148 45 79 C42.625 77.8125 42.625 77.8125 41 76 C40.61871649 74.34364503 40.27986948 72.67647307 40 71 C39.07058594 71.5775 38.14117187 72.155 37.18359375 72.75 C35.93537989 73.50080533 34.68665438 74.2507605 33.4375 75 C32.82841797 75.3815625 32.21933594 75.763125 31.59179688 76.15625 C27.27858657 78.71222647 24.14062077 79.62997804 19 79 C16.5625 76.75 16.5625 76.75 15 74 C15 72.68 15 71.36 15 70 C13.99839844 70.63808594 12.99679688 71.27617188 11.96484375 71.93359375 C10.62278783 72.76885933 9.28031768 73.60345961 7.9375 74.4375 C7.28072266 74.85837891 6.62394531 75.27925781 5.94726562 75.71289062 C1.64838085 78.35998716 -1.83201123 79.8039074 -7 80 C-10 78.5 -10 78.5 -12 76 C-11.88231248 72.58706205 -11.52982686 70.05965373 -10 67 C-11.11375 66.731875 -12.2275 66.46375 -13.375 66.1875 C-17 65 -17 65 -19 62 C-19.1875 58.8125 -19.1875 58.8125 -18 55 C-15.23405699 52.02609136 -12.2024388 49.49078574 -9 47 C-10.093125 46.9175 -11.18625 46.835 -12.3125 46.75 C-16 46 -16 46 -18 44.375 C-19.42139527 40.99918624 -18.70708203 38.53541017 -18 35 C-18 34.01 -18 33.02 -18 32 C-18.33 31.67 -18.66 31.34 -19 31 C-19.49238912 25.09133053 -18.09486218 20.49901323 -16 15 C-16.99 14.67 -17.98 14.34 -19 14 C-19.8125 11.8125 -19.8125 11.8125 -20 9 C-15.09151602 2.66647228 -8.13288113 -2.76517958 0 0 Z " fill="#850E66" transform="translate(20,1)"/>
<path d="M0 0 C1.66479492 1.23071289 1.66479492 1.23071289 3 3 C3.29296875 5.26171875 3.29296875 5.26171875 3.1875 7.6875 C3.16042969 8.49574219 3.13335937 9.30398438 3.10546875 10.13671875 C3.05326172 11.05904297 3.05326172 11.05904297 3 12 C3.60473145 11.63648438 4.20946289 11.27296875 4.83251953 10.8984375 C7.58877999 9.2519637 10.35656224 7.62590789 13.125 6 C14.07632813 5.42765625 15.02765625 4.8553125 16.0078125 4.265625 C17.4 3.45351562 17.4 3.45351562 18.8203125 2.625 C19.66867676 2.12226562 20.51704102 1.61953125 21.39111328 1.1015625 C24.49518173 -0.20908291 26.65992455 -0.33713976 30 0 C33.0109362 2.0072908 33.63016497 2.83884224 35 6 C36.06927734 5.33291016 36.06927734 5.33291016 37.16015625 4.65234375 C45.9628288 -0.54869696 45.9628288 -0.54869696 50 -0.0625 C54.7260274 1.61130137 54.7260274 1.61130137 56 4 C56.31679424 7.16794236 56.34749429 8.2148248 55 11 C51.90353413 14.30114751 48.53064997 17.17419848 45 20 C45.99580078 19.44119141 45.99580078 19.44119141 47.01171875 18.87109375 C48.33623047 18.16146484 48.33623047 18.16146484 49.6875 17.4375 C50.55761719 16.96183594 51.42773438 16.48617188 52.32421875 15.99609375 C55.42105565 14.84325665 56.89496483 14.97560378 60 16 C61.875 17.625 61.875 17.625 63 20 C63 23.5 63 23.5 62 27 C59.5 29.3125 59.5 29.3125 57 31 C56.67 31.66 56.34 32.32 56 33 C57.175625 33.185625 57.175625 33.185625 58.375 33.375 C61 34 61 34 63 36 C62.79999908 41.30002445 61.61886262 44.14766237 58 48 C58.825 48.33 59.65 48.66 60.5 49 C63 51 63 51 63.4375 54.875 C63.23320965 58.23031416 62.51491704 60.97016593 61 64 C61.495 64.391875 61.99 64.78375 62.5 65.1875 C64 67 64 67 64.625 69.3125 C63.63647152 73.56317247 60.48826181 75.5823226 57 78 C53.19836357 80.17341617 50.40444388 80.4719047 46 80 C43.5625 78.25 43.5625 78.25 42 76 C42 74.68 42 73.36 42 72 C41.0821875 72.5775 40.164375 73.155 39.21875 73.75 C37.97972598 74.50092365 36.74011052 75.25087201 35.5 76 C34.89929688 76.3815625 34.29859375 76.763125 33.6796875 77.15625 C28.90737399 79.99933039 25.54707275 80.53987553 20 80 C17.01799285 77.40276797 16.69423024 74.77135886 16 71 C14.98679688 71.63808594 13.97359375 72.27617188 12.9296875 72.93359375 C11.57844033 73.76873957 10.22686007 74.60334664 8.875 75.4375 C8.20984375 75.85837891 7.5446875 76.27925781 6.859375 76.71289062 C2.92959407 79.12084462 -0.28458615 80.75290408 -5 81 C-7.84000455 79.80088697 -9.45897981 78.94678532 -11 76.25 C-11 72.72482298 -9.51986284 70.1613147 -8 67 C-9.093125 66.9175 -10.18625 66.835 -11.3125 66.75 C-15 66 -15 66 -17.0625 64.3125 C-18 62 -18 62 -17.6875 59.25 C-15.29456838 54.64139095 -11.80068926 51.48249202 -8 48 C-9.27875 47.7525 -10.5575 47.505 -11.875 47.25 C-15.77288251 46.26345628 -15.77288251 46.26345628 -17.5625 44.1875 C-18.10102543 41.49487285 -17.66275792 39.65103169 -17 37 C-16.83109374 33.1926587 -16.83109374 33.1926587 -17.6875 30.375 C-18.1363674 25.5272321 -16.58917533 21.5430662 -15 17 C-15.48726562 16.57203125 -15.97453125 16.1440625 -16.4765625 15.703125 C-18 14 -18 14 -18.375 10.75 C-16.49124302 5.61248095 -13.49191552 4.10782704 -8.95703125 1.28515625 C-5.64461352 -0.15445463 -3.57170283 -0.47919111 0 0 Z " fill="#8C001B" transform="translate(217,0)"/>
<path d="M0 0 C2.64988144 2.29656391 2.96996336 3.62454202 3.25 7.125 C3 10 3 10 2 12 C2.63502441 11.63648438 3.27004883 11.27296875 3.92431641 10.8984375 C6.817193 9.25229944 9.72079502 7.6260618 12.625 6 C13.62402344 5.42765625 14.62304688 4.8553125 15.65234375 4.265625 C16.62558594 3.72421875 17.59882813 3.1828125 18.6015625 2.625 C19.49182129 2.12226562 20.38208008 1.61953125 21.29931641 1.1015625 C24.44361379 -0.18094245 26.63278323 -0.34150974 30 0 C33 2 33 2 33.6875 4.125 C33.8421875 5.053125 33.8421875 5.053125 34 6 C34.78503906 5.55527344 35.57007813 5.11054687 36.37890625 4.65234375 C46.03717892 -0.55008779 46.03717892 -0.55008779 50.0625 -0.125 C53 1 53 1 55 2.75 C56.32467114 5.73051007 56.01027617 6.90630985 55 10 C52.71484375 12.67578125 52.71484375 12.67578125 49.9375 15.3125 C48.55884766 16.63701172 48.55884766 16.63701172 47.15234375 17.98828125 C46.44207031 18.65214844 45.73179687 19.31601562 45 20 C45.99580078 19.44119141 45.99580078 19.44119141 47.01171875 18.87109375 C48.33623047 18.16146484 48.33623047 18.16146484 49.6875 17.4375 C50.55761719 16.96183594 51.42773438 16.48617188 52.32421875 15.99609375 C55.42153653 14.84307764 56.89540295 14.97044132 60 16 C61.875 17.6875 61.875 17.6875 63 20 C63.11743801 25.28471033 60.67929738 27.98156379 57.27734375 31.6796875 C56.85582031 32.11539063 56.43429688 32.55109375 56 33 C56.78375 33.103125 57.5675 33.20625 58.375 33.3125 C61 34 61 34 63 37 C62.87639257 42.56233457 60.62570031 45.09539967 57 49 C57.804375 49.12375 58.60875 49.2475 59.4375 49.375 C60.283125 49.58125 61.12875 49.7875 62 50 C63.22487152 52.44974304 62.98796191 53.6753273 62.6875 56.375 C62.60886719 57.14585938 62.53023438 57.91671875 62.44921875 58.7109375 C61.98084469 61.09760878 61.18250119 62.88597746 60 65 C61.98 65.99 61.98 65.99 64 67 C64.4375 69.125 64.4375 69.125 64 72 C60.03320416 76.46947521 55.51230115 79.7756874 49.5 80.3125 C45.84814927 79.9864419 44.38207755 79.76320996 42 77 C41.90234375 74.38671875 41.90234375 74.38671875 42 72 C40.99839844 72.5775 39.99679688 73.155 38.96484375 73.75 C37.62283014 74.50077685 36.28035751 75.25073361 34.9375 76 C34.28072266 76.3815625 33.62394531 76.763125 32.94726562 77.15625 C28.4712528 79.62577432 25.2376217 80.53752813 20 80 C18.125 78.875 18.125 78.875 17 77 C16.63509491 75.00551877 16.2989128 73.00543318 16 71 C14.99839844 71.63808594 13.99679688 72.27617188 12.96484375 72.93359375 C11.62278783 73.76885933 10.28031768 74.60345961 8.9375 75.4375 C8.28072266 75.85837891 7.62394531 76.27925781 6.94726562 76.71289062 C2.65959827 79.35307988 -0.83728448 80.86097951 -6 81 C-9 78.9375 -9 78.9375 -11 76 C-10.87695017 72.86222932 -10.39649044 70.79298089 -9 68 C-10.11375 67.731875 -11.2275 67.46375 -12.375 67.1875 C-16 66 -16 66 -18 63 C-17.91360671 59.02590883 -17.33695713 57.38249187 -14.6875 54.375 C-13.800625 53.59125 -12.91375 52.8075 -12 52 C-11.236875 51.236875 -10.47375 50.47375 -9.6875 49.6875 C-9.130625 49.130625 -8.57375 48.57375 -8 48 C-9.27875 47.731875 -10.5575 47.46375 -11.875 47.1875 C-15.49675855 46.42809901 -15.80051868 46.29922197 -18 43 C-18.37198336 39.37316225 -17.85274014 37.12649899 -16 34 C-16.66 33.01 -17.32 32.02 -18 31 C-17.64910724 25.73660862 -16.56933815 21.02188207 -15 16 C-15.66 16 -16.32 16 -17 16 C-18.45120055 13.0975989 -18.42260286 11.21337645 -18 8 C-15.5859375 5.6640625 -15.5859375 5.6640625 -12.375 3.625 C-11.33085938 2.93664062 -10.28671875 2.24828125 -9.2109375 1.5390625 C-5.77295745 -0.10882575 -3.75799038 -0.45355056 0 0 Z " fill="#FF8A00" transform="translate(118,0)"/>
<path d="M0 0 C1.875 1.0625 1.875 1.0625 3 3 C3.43076923 9.13846154 3.43076923 9.13846154 2 12 C2.89138672 11.45472656 2.89138672 11.45472656 3.80078125 10.8984375 C6.52316905 9.2472225 9.26106823 7.62361243 12 6 C12.93457031 5.42765625 13.86914062 4.8553125 14.83203125 4.265625 C20.49148998 0.9411877 24.39920832 -1.02012235 31 0 C33 2.5 33 2.5 34 5 C37.19630046 4.0106689 40.05077599 2.97249634 43 1.375 C46.37722569 -0.17289511 48.33255886 -0.55808887 52 0 C54.4375 1.625 54.4375 1.625 56 4 C55.78641977 9.18288035 54.17534453 11.40038396 50.4375 14.875 C49.61121094 15.65617187 48.78492188 16.43734375 47.93359375 17.2421875 C47.29550781 17.82226562 46.65742188 18.40234375 46 19 C46.58007812 18.69964844 47.16015625 18.39929688 47.7578125 18.08984375 C51.52782005 16.25460905 54.18896067 14.98525383 58.4375 15.0625 C61 16 61 16 63 19 C63.5 21.8125 63.5 21.8125 63 25 C61.18690884 27.32434071 59.23714168 29.04250103 57 31 C57.804375 31.350625 58.60875 31.70125 59.4375 32.0625 C62 34 62 34 63.125 37.3125 C62.95663571 42.27924666 61.44626471 43.55373529 58 47 C58.825 47.495 59.65 47.99 60.5 48.5 C63 51 63 51 63.4375 54.9375 C63.23210732 58.26735097 62.50316223 60.99367555 61 64 C62.485 64.99 62.485 64.99 64 66 C64.5625 68.8125 64.5625 68.8125 64 72 C60.48182862 75.60193736 56.76282719 78.25039001 52 80 C48.46851294 79.88028857 46.04763211 79.73334248 43.125 77.6875 C41.87038175 75.80557263 41.49658733 74.18949867 41 72 C40.05898438 72.5775 39.11796875 73.155 38.1484375 73.75 C36.89103539 74.50068783 35.63319967 75.25064969 34.375 76 C33.75753906 76.3815625 33.14007813 76.763125 32.50390625 77.15625 C28.53923848 79.49331732 25.73371464 80.6270277 21 80 C17.39626129 77.37024473 16.71604923 75.27502658 16 71 C15.01 71.6496875 14.02 72.299375 13 72.96875 C11.66726338 73.81344222 10.33389596 74.65713974 9 75.5 C8.02740234 76.14388672 8.02740234 76.14388672 7.03515625 76.80078125 C2.10619451 79.87528214 -1.19719195 80.57589897 -7 80 C-9.23159222 78.56026308 -9.77176398 77.5266985 -10.8125 75.125 C-11.05983777 72.3218386 -10.18658176 70.51276138 -9 68 C-10.11375 67.566875 -11.2275 67.13375 -12.375 66.6875 C-16 65 -16 65 -18 62 C-17.90543467 58.40651761 -17.11844177 57.13124628 -14.6875 54.4375 C-13.800625 53.633125 -12.91375 52.82875 -12 52 C-11.236875 51.236875 -10.47375 50.47375 -9.6875 49.6875 C-9.130625 49.130625 -8.57375 48.57375 -8 48 C-9.093125 47.773125 -10.18625 47.54625 -11.3125 47.3125 C-15 46 -15 46 -17.0625 43.8125 C-18.33167264 40.00498209 -17.16453344 37.76760818 -16 34 C-16.90833725 31.93330603 -16.90833725 31.93330603 -18 30 C-17.65815704 24.98630321 -15.83541288 20.62843247 -14 16 C-15.32 15.34 -16.64 14.68 -18 14 C-18.3046875 11.23828125 -18.3046875 11.23828125 -18 8 C-15.8828125 5.91796875 -15.8828125 5.91796875 -13.125 4.1875 C-11.76761719 3.31158203 -11.76761719 3.31158203 -10.3828125 2.41796875 C-6.61177916 0.17389481 -4.44493756 -0.36285205 0 0 Z " fill="#9E9E9E" transform="translate(217,97)"/>
</svg>
